<svg id="visual" viewBox="0 0 900 600" width="900" height="600" xmlns="http://www.w3.org/2000/svg" xmlns:xlink="http://www.w3.org/1999/xlink" version="1.1"><path d="M0 85L21.5 90C43 95 86 105 128.8 106C171.7 107 214.3 99 257.2 97C300 95 343 99 385.8 106C428.7 113 471.3 123 514.2 130C557 137 600 141 642.8 131C685.7 121 728.3 97 771.2 99C814 101 857 129 878.5 143L900 157L900 0L878.5 0C857 0 814 0 771.2 0C728.3 0 685.7 0 642.8 0C600 0 557 0 514.2 0C471.3 0 428.7 0 385.8 0C343 0 300 0 257.2 0C214.3 0 171.7 0 128.8 0C86 0 43 0 21.5 0L0 0Z" fill="#6198ff"></path><path d="M0 283L21.5 278C43 273 86 263 128.8 256C171.7 249 214.3 245 257.2 243C300 241 343 241 385.8 246C428.7 251 471.3 261 514.2 259C557 257 600 243 642.8 244C685.7 245 728.3 261 771.2 278C814 295 857 313 878.5 322L900 331L900 155L878.5 141C857 127 814 99 771.2 97C728.3 95 685.7 119 642.8 129C600 139 557 135 514.2 128C471.3 121 428.7 111 385.8 104C343 97 300 93 257.2 95C214.3 97 171.7 105 128.8 104C86 103 43 93 21.5 88L0 83Z" fill="#3c80ff"></path><path d="M0 349L21.5 339C43 329 86 309 128.8 307C171.7 305 214.3 321 257.2 320C300 319 343 301 385.8 301C428.7 301 471.3 319 514.2 322C557 325 600 313 642.8 317C685.7 321 728.3 341 771.2 356C814 371 857 381 878.5 386L900 391L900 329L878.5 320C857 311 814 293 771.2 276C728.3 259 685.7 243 642.8 242C600 241 557 255 514.2 257C471.3 259 428.7 249 385.8 244C343 239 300 239 257.2 241C214.3 243 171.7 247 128.8 254C86 261 43 271 21.5 276L0 281Z" fill="#0066ff"></path><path d="M0 559L21.5 557C43 555 86 551 128.8 545C171.7 539 214.3 531 257.2 533C300 535 343 547 385.8 546C428.7 545 471.3 531 514.2 517C557 503 600 489 642.8 494C685.7 499 728.3 523 771.2 534C814 545 857 543 878.5 542L900 541L900 389L878.5 384C857 379 814 369 771.2 354C728.3 339 685.7 319 642.8 315C600 311 557 323 514.2 320C471.3 317 428.7 299 385.8 299C343 299 300 317 257.2 318C214.3 319 171.7 303 128.8 305C86 307 43 327 21.5 337L0 347Z" fill="#0059dd"></path><path d="M0 601L21.5 601C43 601 86 601 128.8 601C171.7 601 214.3 601 257.2 601C300 601 343 601 385.8 601C428.7 601 471.3 601 514.2 601C557 601 600 601 642.8 601C685.7 601 728.3 601 771.2 601C814 601 857 601 878.5 601L900 601L900 539L878.5 540C857 541 814 543 771.2 532C728.3 521 685.7 497 642.8 492C600 487 557 501 514.2 515C471.3 529 428.7 543 385.8 544C343 545 300 533 257.2 531C214.3 529 171.7 537 128.8 543C86 549 43 553 21.5 555L0 557Z" fill="#004cbb"></path></svg>